<svg version="1.1" id="Layer_1" xmlns="http://www.w3.org/2000/svg" x="0px" y="0px"
	 width="100%" viewBox="0 0 180 180" enable-background="new 0 0 180 180" xml:space="preserve">
<path fill="#030303" opacity="1.000000" stroke="none" 
	d="
M92.000000,181.000000 
	C61.333336,181.000000 31.166670,181.000000 1.000004,181.000000 
	C1.000003,121.000008 1.000003,61.000011 1.000001,1.000012 
	C60.999989,1.000008 120.999977,1.000008 180.999969,1.000004 
	C180.999985,60.999989 180.999985,120.999977 181.000000,180.999985 
	C151.500000,181.000000 122.000000,181.000000 92.000000,181.000000 
M74.026276,94.156281 
	C79.629089,96.720001 81.714096,99.918617 80.814575,104.848434 
	C79.992554,109.353455 76.764664,111.080986 72.609673,111.516022 
	C66.520096,112.153595 63.328640,109.926804 60.772907,103.410477 
	C58.986397,103.410477 57.238571,103.410477 55.451557,103.410477 
	C56.598995,112.297852 61.513412,116.548973 70.690842,116.887115 
	C78.980888,117.192566 85.420570,112.708359 86.827126,105.650764 
	C88.323959,98.140198 83.927223,91.194016 75.858421,88.371330 
	C73.036148,87.384026 70.051323,86.747841 67.388115,85.445442 
	C63.178818,83.386963 62.187710,79.526588 63.091305,75.263260 
	C63.969212,71.121132 67.215309,70.050674 71.014420,69.854294 
	C76.608772,69.565117 79.741310,72.324295 80.734695,77.689400 
	C82.595039,77.689400 84.192093,77.689400 85.783974,77.689400 
	C85.905220,70.892586 82.198563,66.304977 75.613831,64.895035 
	C67.501343,63.157963 60.168594,66.410370 57.605244,72.882660 
	C55.134781,79.120422 57.316010,86.588173 63.117256,89.955719 
	C66.230988,91.763199 69.865616,92.673340 74.026276,94.156281 
M115.272850,95.003075 
	C125.233925,94.320122 130.584305,89.243622 130.731171,80.336021 
	C130.868622,72.000648 125.850891,66.072395 117.224739,65.323364 
	C111.323639,64.810951 105.342079,65.225250 99.257553,65.225250 
	C99.257553,82.361473 99.257553,99.091064 99.257553,115.847595 
	C101.187271,115.847595 102.794357,115.847595 104.933929,115.847595 
	C104.933929,108.902534 104.933929,102.157433 104.933929,95.007309 
	C108.422333,95.007309 111.383308,95.007309 115.272850,95.003075 
z"/>
<path fill="#EDEDED" opacity="1.000000" stroke="none" 
	d="
M73.645737,94.072342 
	C69.865616,92.673340 66.230988,91.763199 63.117256,89.955719 
	C57.316010,86.588173 55.134781,79.120422 57.605244,72.882660 
	C60.168594,66.410370 67.501343,63.157963 75.613831,64.895035 
	C82.198563,66.304977 85.905220,70.892586 85.783974,77.689400 
	C84.192093,77.689400 82.595039,77.689400 80.734695,77.689400 
	C79.741310,72.324295 76.608772,69.565117 71.014420,69.854294 
	C67.215309,70.050674 63.969212,71.121132 63.091305,75.263260 
	C62.187710,79.526588 63.178818,83.386963 67.388115,85.445442 
	C70.051323,86.747841 73.036148,87.384026 75.858421,88.371330 
	C83.927223,91.194016 88.323959,98.140198 86.827126,105.650764 
	C85.420570,112.708359 78.980888,117.192566 70.690842,116.887115 
	C61.513412,116.548973 56.598995,112.297852 55.451557,103.410477 
	C57.238571,103.410477 58.986397,103.410477 60.772907,103.410477 
	C63.328640,109.926804 66.520096,112.153595 72.609673,111.516022 
	C76.764664,111.080986 79.992554,109.353455 80.814575,104.848434 
	C81.714096,99.918617 79.629089,96.720001 73.645737,94.072342 
z"/>
<path fill="#EEEEEE" opacity="1.000000" stroke="none" 
	d="
M114.808563,95.005188 
	C111.383308,95.007309 108.422333,95.007309 104.933929,95.007309 
	C104.933929,102.157433 104.933929,108.902534 104.933929,115.847595 
	C102.794357,115.847595 101.187271,115.847595 99.257553,115.847595 
	C99.257553,99.091064 99.257553,82.361473 99.257553,65.225250 
	C105.342079,65.225250 111.323639,64.810951 117.224739,65.323364 
	C125.850891,66.072395 130.868622,72.000648 130.731171,80.336021 
	C130.584305,89.243622 125.233925,94.320122 114.808563,95.005188 
M115.799629,70.385002 
	C112.243584,70.385002 108.687538,70.385002 105.161728,70.385002 
	C105.161728,77.247513 105.161728,83.315247 105.161728,89.869492 
	C108.368431,89.869492 111.313263,89.918777 114.255882,89.859215 
	C120.345856,89.735954 123.652008,87.072403 124.380562,81.786987 
	C125.202690,75.822762 122.794662,72.305359 115.799629,70.385002 
z"/>
<path fill="#0D0D0D" opacity="1.000000" stroke="none" 
	d="
M116.218422,70.430664 
	C122.794662,72.305359 125.202690,75.822762 124.380562,81.786987 
	C123.652008,87.072403 120.345856,89.735954 114.255882,89.859215 
	C111.313263,89.918777 108.368431,89.869492 105.161728,89.869492 
	C105.161728,83.315247 105.161728,77.247513 105.161728,70.385002 
	C108.687538,70.385002 112.243584,70.385002 116.218422,70.430664 
z"/>
</svg>